PathFileType	4	(X/Y/Z)	8_coords_data.trc
DataRate	CameraRate	NumFrames	NumMarkers	Units	OrigDataRate	OrigDataStartFrame	OrigNumFrames
30.0	30.0	6	21	m	30.0	19	47
Frame#	Time	THUMB_TIP	THUMB_IP	THUMB_MCP	THUMB_CMC	INDEX_TIP	INDEX_DIP	INDEX_PIP	INDEX_MCP	MIDDLE_TIP	MIDDLE_DIP	MIDDLE_PIP	MIDDLE_MCP	RING_TIP	RING_DIP	RING_PIP	RING_MCP	PINKY_TIP	PINKY_DIP	PINKY_PIP	PINKY_MCP	WRIST
X1	Y1	Z1	X2	Y2	Z2	X3	Y3	Z3	X4	Y4	Z4	X5	Y5	Z5	X6	Y6	Z6	X7	Y7	Z7	X8	Y8	Z8	X9	Y9	Z9	X10	Y10	Z10	X11	Y11	Z11	X12	Y12	Z12	X13	Y13	Z13	X14	Y14	Z14	X15	Y15	Z15	X16	Y16	Z16	X17	Y17	Z17	X18	Y18	Z18	X19	Y19	Z19	X20	Y20	Z20	X21	Y21	Z21
17	0.5999999999999973	0.545964979158714	0.004795084240430292	-0.1071252114033618	0.5287225090404781	-0.007139624238405418	-0.11651988849983244	0.49902382450209737	-0.015830021043695797	-0.11316055224748384	0.48160068741229545	-0.02473788373357444	-0.07307346858892574	0.4988097866443322	-0.004599616368220816	-0.1082930796616862	0.5152450393613783	-0.007381958877529349	-0.11537411336360606	0.5281305941244794	0.012407284134659857	-0.12399723185123264	0.49462219330484414	0.0325026241732741	-0.10705614341975496	0.5041909832458475	-0.016024891367327432	-0.10105741646883504	0.5213606716473103	-0.010303625772030145	-0.10174219393979947	0.5392362403289458	0.012256257786953717	-0.10631660626415569	0.5056737839199295	0.03565420981597145	-0.08836541461455569	0.5082051172662527	-0.009354757937638403	-0.08389693599458402	0.5260952490672032	-0.00969679412867841	-0.0860937963425901	0.5457807543316774	0.0053867927154741535	-0.08836233538727739	0.5181449303763603	0.030457757161674426	-0.07279220982426104	0.5098459696179378	-0.019161460116993267	-0.06932884926567785	0.5258411478848458	-0.0225234617062946	-0.07441325852569691	0.5426507362966142	-0.00994441800096757	-0.07428128926253899	0.5245368693147415	0.016363781523862198	-0.0575286801605282	0.4622830810018608	-0.023011742144276925	-0.051989820119430985
18	0.6333333333333304	0.5458982346039108	0.005221010499974477	-0.1064798515811784	0.5288254325140715	-0.006772016917307555	-0.11610724594151826	0.4991499345530891	-0.015653855163423436	-0.11305802142738966	0.4816334986511769	-0.02471239876899234	-0.07304543264535496	0.49864038808245414	-0.004463389840622445	-0.10820524445643447	0.5150738642212809	-0.007408434418930798	-0.11522433089459651	0.5280968742299623	0.012301041986558903	-0.12382360895355166	0.4946373333106713	0.032563717411406734	-0.10698558056250888	0.5040760869140524	-0.016212166455552568	-0.10134004795828376	0.5212256690148562	-0.01039717403813456	-0.10161878969028208	0.539182035684316	0.012107693095197103	-0.10614752034500335	0.50569808395776	0.03568569865744109	-0.08828553413180586	0.5080377251801763	-0.009337587044252582	-0.08385528512398456	0.5259378706198544	-0.009760067165770492	-0.08595440488838578	0.5456995222542321	0.005225932192795879	-0.08820760858679963	0.5181713150186089	0.030461173071676617	-0.07271240745298241	0.5096196022978081	-0.01912996998300931	-0.06918788035787728	0.5256053825344198	-0.022551080715688565	-0.07426240807792203	0.542513939833014	-0.010105197388258547	-0.07414972586921703	0.5245512913694841	0.016349797193277005	-0.05746560249198876	0.4622830810018609	-0.023011742144276925	-0.051989820119430985
19	0.6666666666666637	0.5460205767372703	0.005611554102433303	-0.10606362650278144	0.528988834355054	-0.006406020546593005	-0.11573304484003885	0.4993412905828748	-0.015459252162203119	-0.1129255289289813	0.4816741402384199	-0.024661335285553365	-0.07301207925475012	0.49795722389499997	-0.003920892402453524	-0.107915023293305	0.5143283827518262	-0.00723139492498337	-0.11491686096158023	0.5278558201786552	0.012075238235785268	-0.12365025581459936	0.4945692478142225	0.0326903433965523	-0.1068974162511731	0.5036185035588926	-0.016021313322973962	-0.10174699773415649	0.520762403455393	-0.010191557211666424	-0.10142975961941934	0.5390241386720107	0.012041794325507227	-0.10607697989638225	0.5056298074621011	0.03576475827854031	-0.08823916766152716	0.5076329396389611	-0.008914973609648102	-0.0838102286260397	0.5255309435382718	-0.00966431140159274	-0.08583506177813571	0.5454547515022273	0.005090119522285774	-0.08818636425291815	0.518111401638207	0.030529456479620798	-0.07269758807837969	0.5094137207268813	-0.018765295400321125	-0.06907433042803852	0.5253448090058462	-0.02235309814940023	-0.07420542170392978	0.5423659993091018	-0.010061193290185622	-0.07419220836316573	0.5244946401509321	0.016437380248784272	-0.05747923216981482	0.4622830810018609	-0.023011742144276925	-0.051989820119430985
20	0.6999999999999968	0.5463658350750276	0.0055586046983702175	-0.1062220398220926	0.5291263912927539	-0.006353022438047029	-0.11565149988302921	0.4994690123313361	-0.015372579178019263	-0.11283947759412871	0.4817408581869025	-0.02458740713183416	-0.07295602869094583	0.49735877384699656	-0.00338071678662466	-0.10767434310905262	0.5136667533756445	-0.007036793222769955	-0.1146516569751664	0.5275573670191924	0.011931214639307908	-0.12355532831623867	0.49444822529868204	0.032840664378198325	-0.10681568255690524	0.502435042671768	-0.013606667792770866	-0.10107212948506153	0.5201565620327621	-0.009872819924300447	-0.10115043422969913	0.5387552773267652	0.01199345753890746	-0.1061866281610941	0.5055152701061774	0.035849517388813146	-0.08823841796026953	0.5072353997270747	-0.007748627837138589	-0.08335835592788439	0.5250438339323896	-0.009334615014908731	-0.08567013356142038	0.5451572750165194	0.005108358299644955	-0.0883215461265146	0.5179822604670851	0.030656603082937273	-0.07271620708082216	0.5092482499370985	-0.01802946685513629	-0.0689156189899511	0.5250589882791049	-0.02194642650270906	-0.07417660560843733	0.5421619384383105	-0.009769384131837255	-0.0743206679203921	0.5243352094260102	0.016685933420248267	-0.05749190216231201	0.4622830810018609	-0.023011742144276925	-0.051989820119430985
21	0.7333333333333302	0.5470295161586468	0.004857377975321264	-0.10718496775120054	0.5292667535826533	-0.006758635296404747	-0.11599135755292816	0.4995567372395129	-0.015477952614114332	-0.11281198113554425	0.4818110329426011	-0.024516153605267932	-0.07289593296128132	0.4974091705654582	-0.0034147273757166863	-0.10756012147663738	0.5137009536077461	-0.006775994978443944	-0.11472110502681222	0.5274389405933572	0.012244333237497407	-0.12374909822248145	0.4943440433196896	0.03296557433144831	-0.10674927363598172	0.5019792931425932	-0.011060827234754433	-0.09886044082221537	0.5198850538335607	-0.009473823152862826	-0.10106614980616241	0.5385672243938753	0.01221921081470334	-0.10652493450949459	0.5054070126076119	0.035928907969601576	-0.08823836741467962	0.507346257731614	-0.006749290955182619	-0.08250124703018608	0.5249850778883196	-0.008730511803146879	-0.08565509982177114	0.5451381528063243	0.005586487974393095	-0.08866459607849209	0.5178358615804284	0.030799292026795655	-0.07273913722696979	0.5092385413313347	-0.017513414302059105	-0.0688785716633529	0.5249892412081978	-0.021493405241366226	-0.07427070718761582	0.5420715014728714	-0.009288977857367264	-0.07451638070806516	0.5241471193597022	0.016977720420183418	-0.05749696419464678	0.462283081001861	-0.023011742144276925	-0.051989820119430985
22	0.7666666666666633	0.5479625032771418	0.003361871551129436	-0.10907387255110058	0.529408865922601	-0.007752201870812603	-0.11683531010401994	0.49962051683588116	-0.015871005238815572	-0.11289078344554378	0.4818097964846998	-0.024447603737385415	-0.072901907507774	0.4983631906908986	-0.004049819155268586	-0.10777187563547712	0.5146712918813945	-0.006362098079187528	-0.1153017628682679	0.5276093373799681	0.013242377118751536	-0.12426174969249011	0.4942621459364268	0.03306616570746579	-0.10669421364392113	0.5028512044948278	-0.011395071299416859	-0.09785081239979776	0.5204428970498868	-0.009078402366370475	-0.10147922777058177	0.5386573746129273	0.012987781365514373	-0.10702232190799282	0.5053229620013486	0.0360183752409593	-0.0881926484486535	0.5080957575572416	-0.007178282508618072	-0.08227135557299287	0.5256916109101046	-0.0082084762513156	-0.08605614693277024	0.545480578491161	0.006585720635040038	-0.08917199024777295	0.5177078505483731	0.030936040782252205	-0.07272637304001305	0.5096313433205231	-0.017869787360345724	-0.06929943597616733	0.5255405489389624	-0.021160831401723423	-0.07469074432460449	0.542295002795253	-0.008508234890398758	-0.07480072841002298	0.5239670891794892	0.017260791380521723	-0.05745344278541556	0.4622830810018608	-0.023011742144276925	-0.051989820119430985
